<?xml version="1.0" encoding="utf-8"?>
<!-- Generator: Adobe Illustrator 28.0.0, SVG Export Plug-In . SVG Version: 6.00 Build 0)  -->
<svg version="1.1" id="Layer_1" xmlns="http://www.w3.org/2000/svg" xmlns:xlink="http://www.w3.org/1999/xlink" x="0px" y="0px"
	 viewBox="0 0 221.34 75.26" style="enable-background:new 0 0 221.34 75.26;" xml:space="preserve">
<style type="text/css">
	.st0{fill:#00522C;}
	.st1{fill:#20C500;}
	.st2{fill:#666666;}
</style>
<g>
	<g>
		<path class="st0" d="M112.43,37.5c-1.35,1.55-4.88,5.18-10.61,6.54c-1.39,0.33-11.26,2.5-17.41-4.35
			c-0.7-0.78-1.27-1.59-1.75-2.41c-3.78-6.54-1.85-14.92,4.29-19.32c1.25-0.9,2.72-1.68,4.45-2.22c6.96-2.2,12.72,1.15,13.6,1.68
			l11.43-11.7c-2.11-1.24-17.12-9.71-33.03-3.24c-6.96,2.83-11.42,7.43-13.81,10.39c-1.44,2.05-5.28,8.06-5.26,16.64
			c0.01,8.74,4,14.82,5.46,16.84c1.7,2.27,5.13,6.24,10.8,9.23c5.98,3.16,11.5,3.65,14.37,3.72c4.81,0.27,10.78-0.32,16.25-3.67
			c0.44-0.27,0.86-0.55,1.27-0.83C112.45,49.02,112.44,43.26,112.43,37.5z"/>
		<path class="st0" d="M217.34,37.53c-1.35,1.55-4.88,5.18-10.61,6.54c-1.39,0.33-11.26,2.5-17.41-4.35
			c-0.7-0.78-1.27-1.59-1.75-2.41c-3.78-6.54-1.85-14.92,4.29-19.32c1.25-0.9,2.72-1.68,4.45-2.22c6.96-2.2,12.72,1.15,13.6,1.68
			l11.43-11.7c-2.11-1.24-17.12-9.71-33.03-3.24c-6.96,2.83-11.42,7.43-13.81,10.39c-1.44,2.05-5.28,8.06-5.26,16.64
			c0.01,8.74,4,14.82,5.46,16.84c1.7,2.27,5.13,6.24,10.8,9.23c5.98,3.16,11.5,3.65,14.37,3.72c4.81,0.27,10.78-0.32,16.25-3.67
			c0.44-0.27,0.86-0.55,1.27-0.83C217.36,49.05,217.35,43.29,217.34,37.53z"/>
		<path class="st0" d="M162.82,32.71c-0.09-0.11-0.19-0.21-0.28-0.32c-1.73-1.88-3.56-2.96-4.79-3.56c1.26-0.72,3.43-2.2,5-4.87
			c3.26-5.53,1.18-11.44,0.84-12.35c-0.61-1.52-1.66-3.53-3.45-5.45c-1.76-1.9-3.73-3.17-5.58-4.03c-2.52-1.17-5.28-1.74-8.06-1.75
			c-4.43-0.02-10.26-0.03-27.31,0.01v58.85h29.43c1.06,0.05,7.88,0.25,13.08-5.13c2.95-3.05,4.12-6.58,4.52-9.45
			C166.82,40.37,165.66,35.99,162.82,32.71z M149.26,40.89c-0.23,3.5-3.24,6.18-6.75,6.18h-6.67V12.54c2.43,0,4.86-0.01,7.28-0.01
			c1.64,0,3.24,0.61,4.38,1.79c1.28,1.32,1.92,3.12,1.64,4.87c-0.19,1.16-0.76,2.22-1.61,3.05c-1.13,1.12-2.69,1.7-4.28,1.7h-1.22
			l-5.99,9.89h6.49c3.1,0,5.87,2.09,6.57,5.11c0.12,0.52,0.18,1.07,0.17,1.62C149.27,40.67,149.27,40.78,149.26,40.89z"/>
		<g>
			<g>
				<path class="st1" d="M43.19,45.97c-2.56,3.31-6.58,5.44-11.08,5.44c-4.51,0-8.52-2.13-11.09-5.44
					c3.44-1.31,7.18-2.03,11.08-2.03C36.01,43.93,39.75,44.65,43.19,45.97z"/>
				<g>
					<path class="st1" d="M30.63,23.45c-1.01,8.08-5.12,15.19-11.11,20.11c-0.92-1.86-1.43-3.95-1.43-6.17
						C18.09,30.15,23.58,24.19,30.63,23.45z"/>
					<path class="st1" d="M46.13,37.39c0,2.22-0.51,4.31-1.43,6.17c-5.99-4.92-10.1-12.03-11.12-20.12
						C40.63,24.18,46.13,30.15,46.13,37.39z"/>
				</g>
			</g>
			<g>
				<path class="st1" d="M30.57,54.11C30.57,54.11,30.57,54.12,30.57,54.11c-0.61,0.52-1.6,1.25-3,1.98
					c-2.56,1.32-6.52,2.64-12.12,2.64c-4.68,0-9.87-0.91-15.45-2.7c4.36-19.92,14.25-24.65,17.1-25.62
					c-0.94,2.01-1.49,4.24-1.55,6.59c0,0.15-0.01,0.31-0.01,0.46s0,0.29,0,0.44v0.03c0,0.13,0.01,0.26,0.02,0.39
					c0,0.07,0,0.14,0.01,0.21c0,0.07,0.01,0.14,0.01,0.21c0.07,1.01,0.23,1.98,0.47,2.93c0.11,0.44,0.24,0.88,0.39,1.31
					c0.16,0.46,0.33,0.9,0.53,1.34c0.07,0.15,0.13,0.29,0.2,0.44l0,0c0.85,1.76,2,3.36,3.38,4.71c0.13,0.12,0.25,0.24,0.38,0.36l0,0
					c0.32,0.3,0.66,0.58,1.01,0.85c0.52,0.41,1.06,0.78,1.63,1.13l0,0c0.38,0.23,0.76,0.44,1.16,0.64c0.2,0.1,0.4,0.19,0.61,0.29
					C26.97,53.46,28.72,53.94,30.57,54.11z"/>
				<path class="st1" d="M33.65,54.11C33.65,54.11,33.65,54.12,33.65,54.11c0.61,0.52,1.6,1.25,3,1.98
					c2.56,1.32,6.52,2.64,12.12,2.64c4.68,0,9.87-0.91,15.45-2.7c-4.36-19.92-14.25-24.65-17.1-25.62c0.94,2.01,1.49,4.24,1.55,6.59
					c0,0.15,0.01,0.31,0.01,0.46s0,0.29,0,0.44v0.03c0,0.13-0.01,0.26-0.02,0.39c0,0.07,0,0.14-0.01,0.21
					c0,0.07-0.01,0.14-0.01,0.21c-0.07,1.01-0.23,1.98-0.47,2.93c-0.11,0.44-0.24,0.88-0.39,1.31c-0.16,0.46-0.33,0.9-0.53,1.34
					c-0.07,0.15-0.13,0.29-0.2,0.44l0,0c-0.85,1.76-2,3.36-3.38,4.71c-0.13,0.12-0.25,0.24-0.38,0.36l0,0
					c-0.32,0.3-0.66,0.58-1.01,0.85c-0.52,0.41-1.06,0.78-1.63,1.13l0,0c-0.38,0.23-0.76,0.44-1.16,0.64
					c-0.2,0.1-0.4,0.19-0.61,0.29C37.25,53.46,35.49,53.94,33.65,54.11z"/>
			</g>
			<path class="st1" d="M45.98,25.16c0,0.15,0,0.3-0.01,0.44c0,0.02,0,0.04,0,0.05c0,0.05,0,0.11-0.01,0.16
				c-0.03,0.76-0.12,1.39-0.2,1.85c-3.03-4.18-7.96-6.91-13.53-6.91c-5.69,0-10.71,2.84-13.73,7.19c-0.11-0.54-0.24-1.4-0.27-2.52
				c0-0.1,0-0.2,0-0.3c0-0.11,0-0.22,0-0.34c0.06-4.9,2.11-14.03,13.86-24.78C43.84,10.75,45.9,19.87,45.96,24.77
				C45.98,24.9,45.98,25.03,45.98,25.16z"/>
		</g>
	</g>
	<g>
		<g>
			<path class="st2" d="M93.91,75.13v-7.2h5.37v1.3h-3.92v1.65h2.58v1.26h-2.58v1.71h3.96v1.3h-5.41V75.13z"/>
			<path class="st2" d="M100.34,75.13v-7.2h2.68c0.53,0,1.01,0.09,1.46,0.27c0.45,0.18,0.83,0.44,1.17,0.77
				c0.33,0.33,0.59,0.71,0.78,1.15s0.29,0.91,0.29,1.42s-0.09,0.99-0.28,1.42c-0.19,0.43-0.45,0.81-0.78,1.14
				c-0.34,0.33-0.73,0.58-1.17,0.76c-0.45,0.18-0.93,0.27-1.46,0.27H100.34z M101.79,73.8h1.22c0.31,0,0.6-0.06,0.87-0.17
				c0.27-0.11,0.51-0.27,0.71-0.48s0.36-0.45,0.47-0.72c0.11-0.27,0.16-0.57,0.16-0.9c0-0.32-0.06-0.62-0.17-0.9
				c-0.11-0.28-0.27-0.52-0.47-0.73c-0.2-0.21-0.43-0.37-0.7-0.48c-0.27-0.12-0.56-0.17-0.87-0.17h-1.22L101.79,73.8L101.79,73.8z"
				/>
			<path class="st2" d="M107.71,75.13v-7.2h1.45v7.2H107.71z"/>
			<path class="st2" d="M112.33,75.13v-5.88h-2.35v-1.32h6.15v1.32h-2.35v5.88H112.33z"/>
			<path class="st2" d="M129.04,75.23c-0.63,0-1.18-0.13-1.64-0.39s-0.82-0.63-1.07-1.12c-0.25-0.48-0.38-1.05-0.38-1.7v-4.09h1.45
				v4.09c0,0.37,0.07,0.69,0.2,0.97s0.33,0.49,0.58,0.64c0.25,0.15,0.54,0.22,0.87,0.22s0.62-0.07,0.87-0.22s0.44-0.36,0.57-0.64
				c0.14-0.28,0.2-0.6,0.2-0.97v-4.09h1.44v4.09c0,0.64-0.13,1.21-0.38,1.69s-0.61,0.86-1.07,1.12
				C130.22,75.1,129.67,75.23,129.04,75.23z"/>
			<path class="st2" d="M140.07,75.13v-7.2h5.37v1.3h-3.92v1.65h2.58v1.26h-2.58v1.71h3.96v1.3h-5.41V75.13z"/>
			<path class="st2" d="M145.94,75.13l2.87-7.2h1.67l2.84,7.2h-1.57l-0.71-1.89h-2.88l-0.72,1.89H145.94z M148.62,72.05h2l-1-2.65
				L148.62,72.05z"/>
			<path class="st2" d="M156.61,75.23c-0.63,0-1.18-0.13-1.64-0.39c-0.46-0.26-0.82-0.63-1.07-1.12c-0.25-0.48-0.38-1.05-0.38-1.7
				v-4.09h1.45v4.09c0,0.37,0.07,0.69,0.2,0.97c0.14,0.28,0.33,0.49,0.58,0.64c0.25,0.15,0.54,0.22,0.87,0.22s0.62-0.07,0.87-0.22
				s0.44-0.36,0.57-0.64c0.14-0.28,0.2-0.6,0.2-0.97v-4.09h1.44v4.09c0,0.64-0.13,1.21-0.38,1.69s-0.61,0.86-1.07,1.12
				C157.79,75.1,157.24,75.23,156.61,75.23z"/>
			<path class="st2" d="M169.13,75.13l2.87-7.2h1.67l2.84,7.2h-1.57l-0.71-1.89h-2.88l-0.72,1.89H169.13z M171.8,72.05h2l-1-2.65
				L171.8,72.05z"/>
			<path class="st2" d="M177.1,75.13v-7.2h1.86l1.92,3.89l1.92-3.89h1.86v7.2h-1.37v-5.3l-2.42,4.78l-2.41-4.8v5.32L177.1,75.13
				L177.1,75.13z"/>
			<path class="st2" d="M196.12,75.24c-0.52,0-1-0.09-1.45-0.28s-0.84-0.45-1.17-0.79c-0.34-0.34-0.6-0.73-0.79-1.18
				c-0.19-0.45-0.28-0.93-0.28-1.46c0-0.52,0.09-1.01,0.28-1.46c0.19-0.45,0.45-0.84,0.79-1.18s0.73-0.6,1.17-0.79
				c0.45-0.19,0.93-0.28,1.45-0.28c0.52,0,1,0.09,1.45,0.28s0.84,0.45,1.18,0.79s0.6,0.73,0.78,1.18c0.19,0.45,0.28,0.93,0.28,1.46
				c0,0.52-0.09,1.01-0.28,1.46c-0.19,0.45-0.45,0.84-0.78,1.18c-0.34,0.34-0.73,0.6-1.18,0.79
				C197.12,75.15,196.64,75.24,196.12,75.24z M196.12,73.88c0.32,0,0.61-0.06,0.88-0.18c0.27-0.12,0.5-0.28,0.7-0.49
				s0.36-0.46,0.47-0.75c0.11-0.29,0.17-0.6,0.17-0.93c0-0.34-0.06-0.65-0.17-0.93c-0.11-0.28-0.27-0.53-0.47-0.74
				s-0.43-0.37-0.7-0.49c-0.27-0.12-0.56-0.18-0.88-0.18c-0.31,0-0.6,0.06-0.87,0.18s-0.5,0.28-0.7,0.49s-0.36,0.46-0.47,0.74
				c-0.11,0.28-0.17,0.59-0.17,0.92c0,0.34,0.06,0.65,0.17,0.94c0.11,0.29,0.27,0.54,0.47,0.75s0.43,0.37,0.7,0.49
				C195.52,73.82,195.81,73.88,196.12,73.88z"/>
			<path class="st2" d="M200.81,75.13v-7.2h2.68c0.53,0,1.01,0.09,1.46,0.27c0.45,0.18,0.83,0.44,1.17,0.77
				c0.33,0.33,0.59,0.71,0.78,1.15s0.28,0.91,0.28,1.42s-0.09,0.99-0.28,1.42s-0.45,0.81-0.78,1.14c-0.34,0.33-0.73,0.58-1.17,0.76
				c-0.45,0.18-0.93,0.27-1.46,0.27H200.81z M202.26,73.8h1.22c0.31,0,0.6-0.06,0.87-0.17c0.27-0.11,0.5-0.27,0.71-0.48
				c0.2-0.21,0.36-0.45,0.47-0.72s0.17-0.57,0.17-0.9c0-0.32-0.06-0.62-0.17-0.9c-0.11-0.28-0.27-0.52-0.47-0.73
				c-0.2-0.21-0.43-0.37-0.7-0.48c-0.27-0.12-0.56-0.17-0.87-0.17h-1.22L202.26,73.8L202.26,73.8z"/>
			<path class="st2" d="M208.17,75.13v-7.2h1.45v7.2H208.17z"/>
			<path class="st2" d="M210.22,75.13l2.87-7.2h1.67l2.84,7.2h-1.57l-0.71-1.89h-2.88l-0.72,1.89H210.22z M212.89,72.05h2l-1-2.65
				L212.89,72.05z"/>
			<g>
				<path class="st2" d="M85.96,68.45c-0.31-0.2-0.64-0.35-1-0.46s-0.73-0.16-1.12-0.16c-0.52,0-1,0.09-1.45,0.28
					s-0.84,0.45-1.18,0.79s-0.6,0.73-0.79,1.18c-0.19,0.45-0.28,0.94-0.28,1.47c0,0.52,0.1,1.01,0.28,1.46
					c0.19,0.45,0.45,0.84,0.79,1.18s0.73,0.6,1.18,0.79c0.45,0.19,0.94,0.28,1.46,0.28c0.37,0,0.74-0.05,1.09-0.16
					c0.36-0.11,0.69-0.26,0.99-0.46c0.02-0.01,0.04-0.03,0.06-0.04v-1.98c-0.06,0.12-0.14,0.24-0.22,0.35
					c-0.13,0.16-0.27,0.31-0.43,0.43c-0.39,0.3-0.87,0.48-1.4,0.48h-0.01c-1.27-0.01-2.3-1.05-2.3-2.33c0-0.02,0-0.04,0-0.06
					c0.03-1.25,1.04-2.26,2.28-2.28c0.01,0,0.02,0,0.03,0c0.59,0,1.13,0.23,1.54,0.59l1.05-0.88
					C86.35,68.73,86.17,68.58,85.96,68.45z"/>
			</g>
			<g>
				<path class="st2" d="M168.43,68.45c-0.31-0.2-0.64-0.35-1-0.46s-0.73-0.16-1.12-0.16c-0.52,0-1,0.09-1.45,0.28
					s-0.84,0.45-1.18,0.79s-0.6,0.73-0.79,1.18c-0.19,0.45-0.28,0.94-0.28,1.47c0,0.52,0.1,1.01,0.28,1.46
					c0.19,0.45,0.45,0.84,0.79,1.18s0.73,0.6,1.18,0.79c0.45,0.19,0.94,0.28,1.46,0.28c0.37,0,0.74-0.05,1.09-0.16
					c0.36-0.11,0.69-0.26,0.99-0.46c0.02-0.01,0.04-0.03,0.06-0.04v-1.98c-0.06,0.12-0.14,0.24-0.22,0.35
					c-0.13,0.16-0.27,0.31-0.43,0.43c-0.39,0.3-0.87,0.48-1.4,0.48h-0.01c-1.27-0.01-2.3-1.05-2.3-2.33c0-0.02,0-0.04,0-0.06
					c0.03-1.25,1.04-2.26,2.28-2.28c0.01,0,0.02,0,0.03,0c0.59,0,1.13,0.23,1.54,0.59l1.05-0.88
					C168.82,68.73,168.64,68.58,168.43,68.45z"/>
			</g>
			<g>
				<path class="st2" d="M124.75,72.09c-0.2-0.28-0.47-0.5-0.81-0.67c0.27-0.16,0.48-0.38,0.63-0.64c0.16-0.26,0.24-0.55,0.24-0.87
					c0-0.39-0.1-0.74-0.3-1.03s-0.48-0.53-0.83-0.69c-0.35-0.16-0.77-0.25-1.24-0.25h-3.28v7.2h3.44c0.48,0,0.91-0.09,1.28-0.26
					s0.66-0.42,0.86-0.74c0.2-0.32,0.3-0.68,0.3-1.09C125.05,72.69,124.95,72.37,124.75,72.09z M123.3,73.65
					c-0.2,0.17-0.47,0.25-0.8,0.25h-1.89v-1.84v-0.02v-1.16v-0.13v-1.58h1.75c0.31,0,0.56,0.08,0.74,0.23
					c0.18,0.15,0.27,0.36,0.27,0.62s-0.09,0.47-0.27,0.62s-0.43,0.23-0.74,0.23h-1.01l-0.7,1.16h1.85c0.33,0,0.6,0.08,0.8,0.25
					c0.2,0.17,0.3,0.4,0.3,0.68C123.6,73.25,123.5,73.48,123.3,73.65z"/>
			</g>
			<g>
				<path class="st2" d="M137.75,72.16c0.41-0.17,0.74-0.43,0.99-0.78s0.37-0.75,0.37-1.21c0-0.44-0.1-0.83-0.3-1.16
					c-0.2-0.34-0.49-0.6-0.85-0.79s-0.78-0.28-1.25-0.28h-3.41v7.2h1.45V72.4v-0.01v-1.22v-0.08v-1.86h1.84
					c0.33,0,0.59,0.09,0.78,0.27c0.2,0.18,0.29,0.41,0.29,0.7s-0.1,0.52-0.29,0.7c-0.2,0.18-0.46,0.27-0.78,0.27h-1.06l-0.74,1.22
					h1.55l1.37,2.76h1.62L137.75,72.16z"/>
			</g>
			<g>
				<path class="st2" d="M191.49,72.09c-0.2-0.28-0.47-0.5-0.81-0.67c0.27-0.16,0.48-0.38,0.63-0.64c0.16-0.26,0.24-0.55,0.24-0.87
					c0-0.39-0.1-0.74-0.3-1.03c-0.2-0.3-0.48-0.53-0.83-0.69c-0.35-0.16-0.77-0.25-1.24-0.25h-3.28v7.2h3.44
					c0.48,0,0.91-0.09,1.28-0.26s0.66-0.42,0.86-0.74c0.2-0.32,0.3-0.68,0.3-1.09C191.79,72.69,191.69,72.37,191.49,72.09z
					 M190.03,73.65c-0.2,0.17-0.47,0.25-0.8,0.25h-1.89v-1.84v-0.02v-1.16v-0.13v-1.58h1.75c0.31,0,0.56,0.08,0.74,0.23
					c0.18,0.15,0.27,0.36,0.27,0.62s-0.09,0.47-0.27,0.62s-0.43,0.23-0.74,0.23h-1.01l-0.7,1.16h1.85c0.33,0,0.6,0.08,0.8,0.25
					c0.2,0.17,0.3,0.4,0.3,0.68C190.33,73.25,190.23,73.48,190.03,73.65z"/>
			</g>
			<g>
				<path class="st2" d="M91.59,72.16c0.41-0.17,0.74-0.43,0.99-0.78s0.37-0.75,0.37-1.21c0-0.44-0.1-0.83-0.3-1.16
					c-0.2-0.34-0.49-0.6-0.85-0.79c-0.36-0.19-0.78-0.28-1.25-0.28h-3.41v7.2h1.45V72.4v-0.01v-1.22v-0.08v-1.86h1.84
					c0.33,0,0.59,0.09,0.78,0.27c0.2,0.18,0.29,0.41,0.29,0.7s-0.1,0.52-0.29,0.7c-0.2,0.18-0.46,0.27-0.78,0.27h-1.06l-0.74,1.22
					h1.55l1.37,2.76h1.62L91.59,72.16z"/>
			</g>
		</g>
	</g>
</g>
</svg>
