<svg width="239" height="57" viewBox="0 0 239 57" fill="none" xmlns="http://www.w3.org/2000/svg">
<mask id="mask0_2083_18" style="mask-type:luminance" maskUnits="userSpaceOnUse" x="0" y="0" width="239" height="57">
<path d="M238.175 0H0.174805V57H238.175V0Z" fill="white"/>
</mask>
<g mask="url(#mask0_2083_18)">
<path d="M63.543 15.7134V42.3452H60.0842V15.7134H63.543Z" fill="#001A27"/>
<path d="M85.9661 23.5875C87.462 25.1369 88.2073 27.3727 88.2073 30.2923V42.3424H84.7486V30.5935C84.7486 28.5286 84.2162 26.9413 83.1516 25.8342C82.0869 24.7272 80.6428 24.1709 78.8193 24.1709C76.9958 24.1709 75.3988 24.7814 74.2577 26.0025C73.1166 27.2235 72.5488 29.0062 72.5488 31.3478V42.3397H69.0901V21.6041H72.5488V26.5153C73.0811 24.8276 74.0229 23.5306 75.3797 22.6243C76.7337 21.718 78.3006 21.2649 80.0723 21.2649C82.5046 21.2649 84.4674 22.0409 85.9633 23.5875H85.9661Z" fill="#001A27"/>
<path d="M110.404 23.5875C111.9 25.1369 112.645 27.3727 112.645 30.2923V42.3424H109.186V30.5935C109.186 28.5286 108.654 26.9413 107.589 25.8342C106.525 24.7272 105.08 24.1709 103.257 24.1709C101.433 24.1709 99.8363 24.7814 98.6952 26.0025C97.5541 27.2235 96.9863 29.0062 96.9863 31.3478V42.3397H93.5276V21.6041H96.9863V26.5153C97.5187 24.8276 98.4605 23.5306 99.8172 22.6243C101.171 21.718 102.738 21.2649 104.51 21.2649C106.942 21.2649 108.905 22.0409 110.401 23.5875H110.404Z" fill="#001A27"/>
<path d="M132.808 22.6242C134.391 23.4817 135.633 24.7136 136.531 26.3253C137.429 27.937 137.88 29.8256 137.88 31.9908C137.88 34.1561 137.429 36.0392 136.531 37.6374C135.63 39.2383 134.388 40.4647 132.808 41.3194C131.224 42.1769 129.431 42.6029 127.43 42.6029C125.429 42.6029 123.635 42.1742 122.052 41.3194C120.469 40.4647 119.221 39.2356 118.309 37.6374C117.398 36.0392 116.942 34.1561 116.942 31.9908C116.942 29.8256 117.398 27.937 118.309 26.3253C119.221 24.7136 120.469 23.479 122.052 22.6242C123.635 21.7668 125.429 21.3408 127.43 21.3408C129.431 21.3408 131.224 21.7695 132.808 22.6242ZM123.99 25.1938C122.939 25.7474 122.09 26.5966 121.443 27.7444C120.796 28.8894 120.474 30.3058 120.474 31.9936C120.474 33.6813 120.796 35.0597 121.443 36.2047C122.09 37.3498 122.937 38.2018 123.99 38.7553C125.041 39.3088 126.188 39.5856 127.43 39.5856C128.672 39.5856 129.819 39.3088 130.87 38.7553C131.921 38.2018 132.769 37.3525 133.416 36.2047C134.063 35.0597 134.386 33.6541 134.386 31.9936C134.386 30.333 134.063 28.8894 133.416 27.7444C132.769 26.5994 131.921 25.7474 130.87 25.1938C129.819 24.6403 128.672 24.3635 127.43 24.3635C126.188 24.3635 125.041 24.6403 123.99 25.1938Z" fill="#001A27"/>
<path d="M159.487 30.8975C160.513 32.1076 161.026 33.5294 161.026 35.1656C161.026 37.3309 160.286 39.0702 158.804 40.378C157.322 41.6886 155.173 42.3425 152.362 42.3425H142.406V15.7134H152.212C154.898 15.7134 156.937 16.3049 158.329 17.4906C159.721 18.6737 160.42 20.299 160.42 22.3639C160.42 24.076 159.959 25.4626 159.033 26.5208C158.108 27.579 156.923 28.2573 155.479 28.5612C157.125 28.914 158.463 29.6954 159.489 30.9029L159.487 30.8975ZM145.862 27.3836H151.638C153.336 27.3836 154.633 26.9929 155.534 26.2142C156.432 25.4327 156.882 24.3392 156.882 22.9283C156.882 21.5173 156.44 20.4971 155.553 19.7156C154.666 18.9369 153.312 18.5461 151.485 18.5461H145.859V27.3863L145.862 27.3836ZM155.951 38.2263C156.953 37.396 157.453 36.2238 157.453 34.7125C157.453 33.2011 156.94 32.0615 155.913 31.2176C154.887 30.3738 153.462 29.9532 151.638 29.9532H145.862V39.4717H151.715C153.538 39.4717 154.95 39.0566 155.951 38.2263Z" fill="#001A27"/>
<path d="M168.814 14.3892V42.3451H165.356V14.3892H168.814Z" fill="#001A27"/>
<path d="M189.207 22.6242C190.79 23.4817 192.032 24.7136 192.93 26.3253C193.828 27.937 194.279 29.8256 194.279 31.9908C194.279 34.1561 193.828 36.0392 192.93 37.6374C192.029 39.2383 190.787 40.4647 189.207 41.3194C187.623 42.1769 185.83 42.6029 183.829 42.6029C181.828 42.6029 180.034 42.1742 178.451 41.3194C176.868 40.4647 175.62 39.2356 174.708 37.6374C173.796 36.0392 173.341 34.1561 173.341 31.9908C173.341 29.8256 173.796 27.937 174.708 26.3253C175.62 24.7136 176.868 23.479 178.451 22.6242C180.034 21.7668 181.828 21.3408 183.829 21.3408C185.83 21.3408 187.623 21.7695 189.207 22.6242ZM180.389 25.1938C179.338 25.7474 178.489 26.5966 177.842 27.7444C177.195 28.8894 176.873 30.3058 176.873 31.9936C176.873 33.6813 177.195 35.0597 177.842 36.2047C178.489 37.3498 179.335 38.2018 180.389 38.7553C181.44 39.3088 182.587 39.5856 183.829 39.5856C185.071 39.5856 186.217 39.3088 187.268 38.7553C188.319 38.2018 189.168 37.3525 189.815 36.2047C190.462 35.0597 190.784 33.6541 190.784 31.9936C190.784 30.333 190.462 28.8894 189.815 27.7444C189.168 26.5994 188.319 25.7474 187.268 25.1938C186.217 24.6403 185.071 24.3635 183.829 24.3635C182.587 24.3635 181.44 24.6403 180.389 25.1938Z" fill="#001A27"/>
<path d="M214.649 23.4572C216.396 24.8681 217.474 26.7566 217.881 29.1227H214.231C213.977 27.6358 213.287 26.4717 212.159 25.6279C211.032 24.784 209.631 24.3634 207.961 24.3634C206.743 24.3634 205.635 24.6402 204.636 25.1937C203.634 25.7473 202.831 26.5966 202.222 27.7443C201.614 28.8894 201.311 30.3057 201.311 31.9935C201.311 33.6812 201.614 35.0976 202.222 36.2426C202.831 37.3877 203.634 38.2397 204.636 38.7932C205.638 39.3467 206.746 39.6262 207.961 39.6262C209.634 39.6262 211.032 39.1975 212.159 38.3428C213.287 37.4881 213.977 36.3159 214.231 34.829H217.881C217.474 37.2222 216.399 39.1161 214.649 40.5135C212.902 41.9109 210.696 42.6109 208.037 42.6109C206.036 42.6109 204.262 42.1822 202.717 41.3275C201.171 40.4728 199.962 39.2436 199.086 37.6454C198.212 36.0473 197.776 34.1642 197.776 31.9989C197.776 29.8336 198.212 27.9451 199.086 26.3334C199.959 24.7216 201.169 23.487 202.717 22.6323C204.262 21.7749 206.036 21.3489 208.037 21.3489C210.699 21.3489 212.902 22.0544 214.649 23.4653V23.4572Z" fill="#001A27"/>
<path d="M233.842 42.3451L225.86 33.0138V42.3451H222.402V14.3892H225.86V30.6342L233.728 21.6068H237.945L228.596 31.9203L238.172 42.3478H233.84L233.842 42.3451Z" fill="#001A27"/>
<path d="M24.7381 0L0.45052 14.1231L5.37791 17.3819L24.648 6.21636L43.9235 17.2327L49.0802 14.153L24.7381 0ZM24.405 51.0333L5.11585 39.9654V17.8269L0.174805 14.5654V42.8524L24.4023 56.943V51.036L24.405 51.0333ZM44.2074 17.637V39.9654L24.9619 51.036V57L49.3041 42.8524V14.5437L44.2074 17.6343V17.637ZM24.6616 19.9433L18.0554 23.7339C18.181 23.3731 18.0335 23.0095 17.7305 22.8222C17.6322 22.7626 17.534 22.7029 17.4357 22.6459C16.3629 22.0327 15.29 21.4194 14.2145 20.8089C14.0971 20.7438 13.9797 20.6814 13.8459 20.6434C13.5347 20.562 13.1908 20.7384 13.0515 20.9961C12.9669 21.1535 12.8878 21.3136 12.8059 21.4737L12.8004 21.4818C12.8004 21.4818 12.7922 21.4791 12.784 21.4764C12.6366 21.4628 12.5192 21.3706 12.3964 21.3C12.0415 21.0993 11.6893 20.8985 11.3372 20.695C11.2717 20.657 11.2034 20.619 11.157 20.5539C11.1488 20.5403 11.1379 20.5322 11.127 20.524L11.1325 20.5132C11.2362 20.3449 11.3317 20.1713 11.4109 19.9895C11.561 19.6503 11.43 19.2216 11.097 19.0289C9.90675 18.3425 8.71653 17.6614 7.52631 16.9803C7.32703 16.8664 7.12502 16.7958 6.89572 16.8501C6.65549 16.9071 6.49443 17.0645 6.37977 17.2734C6.09587 17.7944 5.82015 18.318 5.54171 18.839C5.43251 19.0398 5.39156 19.2623 5.44616 19.4766C5.48711 19.6367 5.59903 19.7887 5.74372 19.8918C5.81742 19.9433 5.89386 19.9868 5.97029 20.0302C7.095 20.6733 8.2197 21.3163 9.3444 21.9567C9.48908 22.0381 9.63649 22.1222 9.8112 22.1249C10.1115 22.1249 10.3381 21.9974 10.4882 21.7369C10.5728 21.5904 10.6493 21.4384 10.7284 21.2865L10.7366 21.2702C10.7366 21.2702 10.753 21.2756 10.7612 21.2756C10.8376 21.2756 10.9031 21.3109 10.9687 21.3489C11.3809 21.5849 11.7958 21.821 12.208 22.0571C12.2708 22.0923 12.3281 22.133 12.3745 22.19C12.3827 22.2009 12.3882 22.2145 12.4018 22.2226L12.3964 22.2307C12.3281 22.3528 12.2626 22.4804 12.1889 22.5998C11.9432 23.0013 12.0333 23.4952 12.481 23.7584C12.8959 24.0053 13.3218 24.2359 13.7449 24.472C13.7859 24.4937 13.8296 24.5208 13.8705 24.5452C14.5721 24.9441 15.2791 25.3376 15.9752 25.75C16.5075 26.0647 16.9416 25.8857 17.19 25.4C17.2146 25.3511 17.2391 25.305 17.2637 25.2589V32.6691L24.2085 36.6551L24.1375 28.6045L17.5067 24.7976L17.2637 24.6565L17.0399 24.529L17.4876 23.7611L17.7387 23.9049L17.9271 24.0107L24.6234 27.8529L31.4863 23.913V23.8506L24.6616 19.9325V19.9433ZM10.0596 20.9093C10.0214 20.9717 9.99411 21.0396 9.95043 21.0965C9.85761 21.2186 9.67744 21.2593 9.5273 21.1942C9.48908 21.1779 9.45359 21.1535 9.41537 21.1318C8.47084 20.5946 7.53177 20.0492 6.58451 19.5201C6.33064 19.379 6.26512 19.0941 6.39615 18.8716C6.56813 18.5839 6.72374 18.2855 6.87115 17.9843C6.96942 17.7862 7.2233 17.6858 7.43896 17.8106C8.40806 18.3696 9.38262 18.9204 10.3517 19.4766C10.5919 19.615 10.6711 19.843 10.4746 20.1333L10.4664 20.1469C10.3763 20.1333 10.2889 20.1062 10.207 20.0573C10.0705 19.9732 9.93132 19.8945 9.78937 19.8185C9.61193 19.7236 9.38535 19.7914 9.29526 19.9596C9.19972 20.1333 9.25704 20.3775 9.43721 20.4806C9.5819 20.5647 9.72385 20.6461 9.86853 20.7275C9.93405 20.7655 9.99957 20.8008 10.0378 20.8686C10.0432 20.8795 10.0542 20.8903 10.0678 20.8985L10.0624 20.912L10.0596 20.9093ZM17.1491 23.8506C16.9798 24.141 16.8188 24.4367 16.6741 24.7406C16.5594 24.9848 16.2892 25.0635 16.0462 24.9224C15.1126 24.3743 14.1708 23.8452 13.2317 23.3107C13.1116 23.2428 13.0161 23.156 12.956 23.0312L13.1362 22.6079C13.1771 22.6296 13.2208 22.6513 13.2672 22.6703C13.4337 22.7381 13.5839 22.8467 13.7449 22.9362C13.9224 23.0366 14.1653 22.9661 14.2581 22.7897C14.3373 22.635 14.2718 22.361 14.0998 22.2714C13.9469 22.1927 13.7941 22.1141 13.6548 22.0164C13.5893 21.9675 13.5184 21.9214 13.4474 21.8834L13.4638 21.8454C13.4829 21.8156 13.5047 21.7885 13.5184 21.7586C13.6357 21.5063 13.876 21.4846 14.078 21.5985C15.0498 22.152 16.0216 22.7083 16.9907 23.2591C17.1955 23.3731 17.2746 23.6417 17.1518 23.8506H17.1491ZM43.4785 37.3198C43.3803 37.2574 43.282 37.1977 43.1837 37.1408C42.1109 36.5275 41.0381 35.9143 39.9625 35.3038C39.8451 35.2387 39.7277 35.1763 39.594 35.141C39.2828 35.0569 38.9388 35.236 38.7996 35.4937C38.7149 35.6511 38.6358 35.8112 38.5539 35.9713L38.5484 35.9794C38.5484 35.9794 38.5402 35.974 38.532 35.974C38.3846 35.9604 38.2673 35.8682 38.1444 35.7976C37.7895 35.5996 37.4374 35.3961 37.0852 35.1953C37.0197 35.1573 36.9515 35.1193 36.9051 35.0542C36.8969 35.0406 36.8859 35.0325 36.875 35.0243L36.8805 35.0135C36.9842 34.8452 37.0798 34.6716 37.1589 34.4898C37.3091 34.1506 37.178 33.7219 36.845 33.5293C35.6548 32.8455 34.4646 32.1617 33.2743 31.4806C33.0751 31.3667 32.8731 31.2989 32.6437 31.3504C32.4035 31.4074 32.2425 31.5648 32.1278 31.7737C32.106 31.8171 32.0787 31.8605 32.0568 31.9066V24.746H31.833L25.0329 28.6506L25.1066 36.6632L31.4672 33.011C31.4071 33.1222 31.3498 33.2335 31.2897 33.342C31.1805 33.5428 31.1396 33.7653 31.1942 33.9797C31.2351 34.1398 31.3471 34.2917 31.4917 34.3948C31.5654 34.4464 31.6419 34.4898 31.7183 34.5332C32.843 35.1763 33.9677 35.8193 35.0924 36.4597C35.2371 36.5438 35.3845 36.6252 35.5592 36.6279C35.8595 36.6279 36.0861 36.5004 36.2362 36.2399C36.3209 36.0934 36.3973 35.9414 36.4765 35.7895L36.4846 35.7732C36.4846 35.7732 36.501 35.7786 36.5092 35.7786C36.5857 35.7786 36.6512 35.8166 36.7167 35.8519C37.1289 36.088 37.5438 36.324 37.956 36.5601C38.0188 36.5954 38.0762 36.6361 38.1226 36.6931C38.1308 36.7066 38.1362 36.7175 38.1499 36.7256L38.1444 36.7338C38.0762 36.8559 38.0106 36.9834 37.9369 37.1028C37.6912 37.5044 37.7813 37.9982 38.229 38.2614C38.644 38.5083 39.0698 38.7389 39.493 38.975C39.5339 38.9967 39.5776 39.0238 39.6185 39.0483C40.3201 39.4471 41.0271 39.8406 41.7233 40.253C42.2556 40.5678 42.6896 40.3887 42.938 39.903C43.1865 39.4227 43.4458 38.9506 43.6969 38.4757C43.7297 38.4106 43.7597 38.3401 43.787 38.2695C43.9372 37.8951 43.787 37.5125 43.4758 37.3198H43.4785ZM35.8076 35.4069C35.7694 35.4693 35.7421 35.5372 35.6985 35.5941C35.6056 35.7162 35.4255 35.7569 35.2753 35.6918C35.2371 35.6755 35.2016 35.6511 35.1634 35.6294C34.2189 35.0922 33.2798 34.5468 32.3325 34.0177C32.0787 33.8766 32.0131 33.5917 32.1442 33.3692C32.3162 33.0843 32.4718 32.7831 32.6192 32.4819C32.7174 32.2811 32.9713 32.1834 33.187 32.3055C34.1561 32.8645 35.1306 33.4126 36.0997 33.9715C36.34 34.1099 36.4191 34.3378 36.2226 34.6282L36.2144 34.6445C36.1243 34.6282 36.037 34.601 35.9551 34.5522C35.8186 34.4681 35.6793 34.3894 35.5347 34.3134C35.36 34.2184 35.1334 34.2863 35.0406 34.4545C34.945 34.6282 35.0023 34.8724 35.1825 34.9755C35.3272 35.0596 35.4691 35.141 35.6138 35.2224C35.6793 35.2604 35.7449 35.2957 35.7831 35.3635C35.7885 35.3743 35.7995 35.3852 35.8131 35.3933L35.8076 35.4069ZM42.8971 38.3509C42.7278 38.6413 42.5668 38.9343 42.4221 39.2382C42.3074 39.4824 42.0372 39.5611 41.7942 39.42C40.8606 38.8746 39.9188 38.3428 38.9797 37.811C38.8596 37.7431 38.7641 37.6563 38.704 37.5288L38.8842 37.1055C38.9251 37.1272 38.9688 37.1489 39.0152 37.1679C39.1818 37.2357 39.3319 37.3443 39.493 37.4338C39.6704 37.5342 39.9134 37.4637 40.0062 37.2873C40.0853 37.1326 40.0198 36.8586 39.8478 36.7717C39.695 36.6931 39.5421 36.6144 39.4029 36.514C39.3374 36.4651 39.2664 36.4217 39.1954 36.381L39.2118 36.343C39.2309 36.3132 39.2527 36.286 39.2664 36.2562C39.3838 36.0039 39.624 35.9821 39.826 36.0961C40.7978 36.6524 41.7697 37.2059 42.7388 37.7567C42.9435 37.8734 43.0227 38.1393 42.8998 38.3482L42.8971 38.3509Z" fill="#001A27"/>
<path d="M24.6561 19.9434L18.0498 23.734C18.1754 23.3731 18.028 23.0096 17.725 22.8223C17.6267 22.7626 17.5284 22.7029 17.4301 22.646C16.3573 22.0327 15.2845 21.4195 14.2089 20.809C14.0915 20.7439 13.9741 20.6815 13.8404 20.6435C13.5292 20.5621 13.1852 20.7385 13.046 20.9962C12.9614 21.1536 12.8822 21.3137 12.8003 21.4738L12.7948 21.4819C12.7948 21.4819 12.7867 21.4792 12.7785 21.4765C12.6311 21.4629 12.5137 21.3707 12.3908 21.3001C12.0359 21.0993 11.6838 20.8985 11.3316 20.695C11.2661 20.6571 11.1979 20.6191 11.1515 20.5539C11.1433 20.5404 11.1324 20.5322 11.1214 20.5241L11.1269 20.5132C11.2306 20.345 11.3262 20.1714 11.4053 19.9896C11.5555 19.6504 11.4245 19.2217 11.0914 19.029C9.90117 18.3425 8.71095 17.6615 7.52074 16.9804C7.32146 16.8665 7.11945 16.7959 6.89014 16.8502C6.64991 16.9072 6.48885 17.0645 6.3742 17.2735C6.09029 17.7944 5.81457 18.3181 5.53613 18.8391C5.42693 19.0399 5.38599 19.2624 5.44058 19.4767C5.48153 19.6368 5.59346 19.7888 5.73814 19.8919C5.81184 19.9434 5.88828 19.9868 5.96472 20.0303C7.08942 20.6733 8.21412 21.3164 9.33882 21.9568C9.4835 22.0382 9.63092 22.1223 9.80563 22.125C10.1059 22.125 10.3325 21.9975 10.4827 21.737C10.5673 21.5905 10.6437 21.4385 10.7229 21.2866L10.7311 21.2703C10.7311 21.2703 10.7474 21.2757 10.7556 21.2757C10.8321 21.2757 10.8976 21.311 10.9631 21.349C11.3753 21.585 11.7903 21.8211 12.2025 22.0572C12.2653 22.0924 12.3226 22.1331 12.369 22.1901C12.3772 22.201 12.3826 22.2145 12.3963 22.2227L12.3908 22.2308C12.3226 22.3529 12.2571 22.4804 12.1834 22.5998C11.9377 23.0014 12.0278 23.4952 12.4755 23.7584C12.8904 24.0054 13.3162 24.236 13.7394 24.4721C13.7803 24.4938 13.824 24.5209 13.8649 24.5453C14.5665 24.9442 15.2736 25.3376 15.9697 25.7501C16.502 26.0648 16.936 25.8857 17.1845 25.4C17.209 25.3512 17.2336 25.3051 17.2582 25.2589V32.6692L24.2029 36.6551L24.1319 28.6045L17.5011 24.7977L17.2582 24.6566L17.0343 24.529L17.482 23.7612L17.7332 23.905L17.9215 24.0108L24.6179 27.8529L31.4807 23.9131V23.8507L24.6561 19.9326V19.9434ZM10.0541 20.9094C10.0158 20.9718 9.98853 21.0396 9.94485 21.0966C9.85204 21.2187 9.67187 21.2594 9.52172 21.1943C9.4835 21.178 9.44802 21.1536 9.4098 21.1319C8.46527 20.5946 7.5262 20.0493 6.57893 19.5201C6.32506 19.3791 6.25954 19.0941 6.39057 18.8716C6.56256 18.584 6.71816 18.2856 6.86557 17.9844C6.96385 17.7863 7.21772 17.6859 7.43338 17.8107C8.40248 18.3697 9.37704 18.9205 10.3462 19.4767C10.5864 19.6151 10.6656 19.843 10.469 20.1334L10.4608 20.1469C10.3707 20.1334 10.2834 20.1062 10.2015 20.0574C10.065 19.9733 9.92574 19.8946 9.78379 19.8186C9.60635 19.7236 9.37977 19.7915 9.28968 19.9597C9.19414 20.1334 9.25147 20.3776 9.43164 20.4807C9.57632 20.5648 9.71827 20.6462 9.86296 20.7276C9.92847 20.7656 9.99399 20.8009 10.0322 20.8687C10.0377 20.8796 10.0486 20.8904 10.0623 20.8985L10.0568 20.9121L10.0541 20.9094ZM17.1435 23.8507C16.9743 24.141 16.8132 24.4368 16.6685 24.7407C16.5539 24.9849 16.2836 25.0636 16.0406 24.9225C15.107 24.3744 14.1652 23.8453 13.2262 23.3107C13.106 23.2429 13.0105 23.1561 12.9504 23.0313L13.1306 22.608C13.1716 22.6297 13.2152 22.6514 13.2616 22.6704C13.4282 22.7382 13.5783 22.8468 13.7394 22.9363C13.9168 23.0367 14.1598 22.9661 14.2526 22.7898C14.3318 22.6351 14.2662 22.3611 14.0943 22.2715C13.9414 22.1928 13.7885 22.1141 13.6493 22.0165C13.5838 21.9676 13.5128 21.9215 13.4418 21.8835L13.4582 21.8455C13.4773 21.8157 13.4991 21.7885 13.5128 21.7587C13.6302 21.5063 13.8704 21.4846 14.0724 21.5986C15.0442 22.1521 16.0161 22.7084 16.9852 23.2592C17.1899 23.3731 17.2691 23.6418 17.1462 23.8507H17.1435ZM43.473 37.3199C43.3747 37.2575 43.2764 37.1978 43.1782 37.1408C42.1053 36.5276 41.0325 35.9144 39.9569 35.3039C39.8396 35.2388 39.7222 35.1764 39.5884 35.1411C39.2772 35.057 38.9332 35.236 38.794 35.4938C38.7094 35.6512 38.6302 35.8113 38.5483 35.9714L38.5429 35.9795C38.5429 35.9795 38.5347 35.9741 38.5265 35.9741C38.3791 35.9605 38.2617 35.8683 38.1389 35.7977C37.784 35.5996 37.4318 35.3961 37.0797 35.1953C37.0142 35.1574 36.9459 35.1194 36.8995 35.0543C36.8913 35.0407 36.8804 35.0325 36.8695 35.0244L36.8749 35.0135C36.9787 34.8453 37.0742 34.6717 37.1534 34.4899C37.3035 34.1507 37.1725 33.722 36.8394 33.5293C35.6492 32.8456 34.459 32.1618 33.2688 31.4807C33.0695 31.3668 32.8675 31.2989 32.6382 31.3505C32.398 31.4075 32.2369 31.5648 32.1222 31.7738C32.1004 31.8172 32.0731 31.8606 32.0513 31.9067V24.7461H31.8274L25.0273 28.6507L25.101 36.6633L31.4616 33.0111C31.4016 33.1223 31.3442 33.2336 31.2842 33.3421C31.175 33.5429 31.134 33.7654 31.1886 33.9798C31.2296 34.1398 31.3415 34.2918 31.4862 34.3949C31.5599 34.4465 31.6363 34.4899 31.7128 34.5333C32.8375 35.1764 33.9622 35.8194 35.0869 36.4598C35.2316 36.5439 35.379 36.6253 35.5537 36.628C35.854 36.628 36.0805 36.5005 36.2307 36.24C36.3153 36.0935 36.3917 35.9415 36.4709 35.7896L36.4791 35.7733C36.4791 35.7733 36.4955 35.7787 36.5037 35.7787C36.5801 35.7787 36.6456 35.8167 36.7111 35.852C37.1233 36.088 37.5383 36.3241 37.9505 36.5602C38.0133 36.5955 38.0706 36.6362 38.117 36.6931C38.1252 36.7067 38.1307 36.7176 38.1443 36.7257L38.1389 36.7338C38.0706 36.8559 38.0051 36.9835 37.9314 37.1029C37.6857 37.5044 37.7758 37.9983 38.2235 38.2615C38.6384 38.5084 39.0643 38.739 39.4874 38.9751C39.5284 38.9968 39.572 39.0239 39.613 39.0483C40.3146 39.4472 41.0216 39.8407 41.7177 40.2531C42.25 40.5678 42.6841 40.3888 42.9325 39.9031C43.1809 39.4228 43.4402 38.9507 43.6914 38.4758C43.7241 38.4107 43.7542 38.3402 43.7815 38.2696C43.9316 37.8952 43.7815 37.5126 43.4703 37.3199H43.473ZM35.8021 35.407C35.7639 35.4694 35.7366 35.5372 35.6929 35.5942C35.6001 35.7163 35.4199 35.757 35.2698 35.6919C35.2316 35.6756 35.1961 35.6512 35.1578 35.6295C34.2133 35.0922 33.2742 34.5469 32.327 34.0177C32.0731 33.8766 32.0076 33.5917 32.1386 33.3692C32.3106 33.0843 32.4662 32.7832 32.6136 32.482C32.7119 32.2812 32.9658 32.1835 33.1814 32.3056C34.1505 32.8646 35.1251 33.4127 36.0942 33.9716C36.3344 34.11 36.4136 34.3379 36.217 34.6283L36.2088 34.6445C36.1188 34.6283 36.0314 34.6011 35.9495 34.5523C35.813 34.4682 35.6738 34.3895 35.5291 34.3135C35.3544 34.2185 35.1278 34.2864 35.035 34.4546C34.9395 34.6283 34.9968 34.8725 35.177 34.9756C35.3216 35.0597 35.4636 35.1411 35.6083 35.2225C35.6738 35.2605 35.7393 35.2957 35.7775 35.3636C35.783 35.3744 35.7939 35.3853 35.8076 35.3934L35.8021 35.407ZM42.8915 38.351C42.7223 38.6413 42.5612 38.9344 42.4165 39.2383C42.3019 39.4825 42.0316 39.5612 41.7887 39.4201C40.8551 38.8747 39.9133 38.3429 38.9742 37.811C38.8541 37.7432 38.7585 37.6564 38.6985 37.5289L38.8786 37.1056C38.9196 37.1273 38.9633 37.149 39.0097 37.168C39.1762 37.2358 39.3263 37.3443 39.4874 37.4339C39.6648 37.5343 39.9078 37.4637 40.0006 37.2874C40.0798 37.1327 40.0143 36.8587 39.8423 36.7718C39.6894 36.6931 39.5365 36.6144 39.3973 36.5141C39.3318 36.4652 39.2608 36.4218 39.1898 36.3811L39.2062 36.3431C39.2253 36.3133 39.2472 36.2861 39.2608 36.2563C39.3782 36.0039 39.6184 35.9822 39.8204 36.0962C40.7923 36.6524 41.7641 37.206 42.7332 37.7568C42.9379 37.8735 43.0171 38.1394 42.8943 38.3483L42.8915 38.351Z" fill="#001A27"/>
</g>
</svg>
